<?xml version="1.0" encoding="UTF-8" standalone="no"?>
<!-- Created with Inkscape (http://www.inkscape.org/) -->

<svg
   width="132.74321mm"
   height="35.370445mm"
   viewBox="0 0 132.74321 35.370445"
   version="1.1"
   id="svg1"
   inkscape:version="1.4.3 (0d15f75042, 2025-12-25)"
   sodipodi:docname="proto.svg"
   inkscape:export-filename="../kegaw/repo/banner.png"
   inkscape:export-xdpi="96"
   inkscape:export-ydpi="96"
   xmlns:inkscape="http://www.inkscape.org/namespaces/inkscape"
   xmlns:sodipodi="http://sodipodi.sourceforge.net/DTD/sodipodi-0.dtd"
   xmlns="http://www.w3.org/2000/svg"
   xmlns:svg="http://www.w3.org/2000/svg">
  <sodipodi:namedview
     id="namedview1"
     pagecolor="#ffffff"
     bordercolor="#000000"
     borderopacity="0.25"
     inkscape:showpageshadow="2"
     inkscape:pageopacity="0.0"
     inkscape:pagecheckerboard="0"
     inkscape:deskcolor="#d1d1d1"
     inkscape:document-units="mm"
     inkscape:zoom="0.73323641"
     inkscape:cx="-141.83693"
     inkscape:cy="778.73929"
     inkscape:window-width="1536"
     inkscape:window-height="790"
     inkscape:window-x="0"
     inkscape:window-y="0"
     inkscape:window-maximized="1"
     inkscape:current-layer="g17"
     inkscape:export-bgcolor="#ffffff00">
    <inkscape:page
       x="-6.5086464e-21"
       y="0"
       width="132.74319"
       height="35.370445"
       id="page2"
       margin="0"
       bleed="0" />
  </sodipodi:namedview>
  <defs
     id="defs1" />
  <g
     inkscape:label="Camada 1"
     inkscape:groupmode="layer"
     id="layer1"
     transform="translate(-35.025251,-36.857119)">
    <g
       id="g17"
       transform="matrix(1.1590702,0,0,1.1590702,-17.679519,-5.8065422)">
      <path
         style="font-family:'URW Gothic';-inkscape-font-specification:'URW Gothic';white-space:pre;fill:#ffffff;stroke-width:1.00157"
         d="m 186.23452,487.27148 h 0.888 v -1.356 l 1.032,-1.272 2.184,2.628 h 1.104 l -2.724,-3.264 2.556,-3.3 h -1.092 l -3.06,3.984 v -6.288 h -0.888 z m 12.276,-2.988 c 0,-0.9 -0.12,-1.452 -0.444,-2.028 -0.588,-1.056 -1.728,-1.704 -2.988,-1.704 -1.908,0 -3.396,1.5 -3.396,3.408 0,1.944 1.524,3.468 3.468,3.468 1.428,0 2.712,-0.924 3.192,-2.316 h -0.924 c -0.372,0.9 -1.296,1.5 -2.292,1.5 -1.356,0 -2.484,-1.032 -2.556,-2.328 z m -5.916,-0.804 c 0.24,-1.26 1.236,-2.112 2.484,-2.112 1.272,0 2.232,0.792 2.544,2.112 z m 13.71599,-2.772 h -0.888 v 1.164 c -0.66,-0.912 -1.464,-1.32 -2.58,-1.32 -1.92,0 -3.348,1.488 -3.348,3.468 0,1.92 1.488,3.408 3.42,3.408 1.188,0 1.992,-0.48 2.508,-1.488 v 0.444 c 0,0.648 -0.072,1.056 -0.264,1.464 -0.348,0.756 -1.128,1.188 -2.148,1.188 -0.732,0 -1.296,-0.216 -1.764,-0.66 -0.228,-0.204 -0.372,-0.408 -0.648,-0.9 h -0.864 c 0.48,1.536 1.644,2.376 3.3,2.376 1.14,0 2.1,-0.432 2.664,-1.176 0.444,-0.6 0.612,-1.296 0.612,-2.58 z m -3.408,0.66 c 1.416,0 2.52,1.116 2.52,2.544 0,1.536 -1.08,2.7 -2.508,2.7 -1.44,0 -2.52,-1.14 -2.52,-2.664 0,-1.5 1.056,-2.58 2.508,-2.58 z m 11.688,-0.66 h -0.888 v 1.164 c -0.66,-0.912 -1.452,-1.32 -2.592,-1.32 -1.968,0 -3.456,1.488 -3.456,3.456 0,1.968 1.5,3.42 3.528,3.42 1.116,0 1.812,-0.36 2.52,-1.308 v 1.152 h 0.888 z m -3.456,0.66 c 1.452,0 2.568,1.128 2.568,2.592 0,1.5 -1.104,2.652 -2.52,2.652 -1.488,0 -2.628,-1.164 -2.628,-2.664 0,-1.428 1.152,-2.58 2.58,-2.58 z m 6.84001,5.904 h 0.96 l 1.416,-4.356 1.428,4.356 h 0.948 l 2.544,-6.564 h -0.864 l -2.136,5.496 -1.548,-4.692 h -0.732 l -1.548,4.692 -2.088,-5.496 h -0.888 z"
         id="text2"
         transform="matrix(2.0270728,0,0,2.0270728,-296.64257,-932.95016)"
         aria-label="kegaw"
         inkscape:export-filename="../kegaw/assets/dark_banner.svg"
         inkscape:export-xdpi="96"
         inkscape:export-ydpi="96" />
      <path
         style="font-family:'URW Gothic';-inkscape-font-specification:'URW Gothic';white-space:pre;fill:#ffffff;stroke-width:1.00157"
         d="m 186.23452,487.27148 h 0.888 v -8.868 h -0.888 z m 9.084,-6.564 h -0.888 v 1.164 c -0.66,-0.912 -1.452,-1.32 -2.592,-1.32 -1.968,0 -3.456,1.488 -3.456,3.456 0,1.968 1.5,3.42 3.528,3.42 1.116,0 1.812,-0.36 2.52,-1.308 v 1.152 h 0.888 z m -3.456,0.66 c 1.452,0 2.568,1.128 2.568,2.592 0,1.5 -1.104,2.652 -2.52,2.652 -1.488,0 -2.628,-1.164 -2.628,-2.664 0,-1.428 1.152,-2.58 2.58,-2.58 z m 4.96801,5.904 h 0.888 v -3.612 c 0,-0.732 0.096,-1.116 0.348,-1.488 0.348,-0.504 0.96,-0.804 1.656,-0.804 0.648,0 1.236,0.264 1.596,0.708 0.312,0.408 0.432,0.888 0.432,1.752 v 3.444 h 0.888 v -3.444 c 0,-1.104 -0.156,-1.692 -0.576,-2.256 -0.516,-0.66 -1.308,-1.02 -2.232,-1.02 -0.864,0 -1.56,0.324 -2.112,1.008 v -0.852 h -0.888 z m 13.896,-6.564 h -0.888 v 1.164 c -0.66,-0.912 -1.464,-1.32 -2.58,-1.32 -1.92,0 -3.348,1.488 -3.348,3.468 0,1.92 1.488,3.408 3.42,3.408 1.188,0 1.992,-0.48 2.508,-1.488 v 0.444 c 0,0.648 -0.072,1.056 -0.264,1.464 -0.348,0.756 -1.128,1.188 -2.148,1.188 -0.732,0 -1.296,-0.216 -1.764,-0.66 -0.228,-0.204 -0.372,-0.408 -0.648,-0.9 h -0.864 c 0.48,1.536 1.644,2.376 3.3,2.376 1.14,0 2.1,-0.432 2.664,-1.176 0.444,-0.6 0.612,-1.296 0.612,-2.58 z m -3.408,0.66 c 1.416,0 2.52,1.116 2.52,2.544 0,1.536 -1.08,2.7 -2.508,2.7 -1.44,0 -2.52,-1.14 -2.52,-2.664 0,-1.5 1.056,-2.58 2.508,-2.58 z"
         id="text3"
         transform="matrix(0.98528628,0,0,0.98528628,-102.62597,-415.3192)"
         aria-label="lang" />
      <path
         id="rect9"
         style="fill:#ffffff;fill-opacity:1;stroke-width:0.231996"
         d="m 145.79986,56.991198 v 9.38754 h 12.73049 v -9.38754 z m 1.63763,1.86449 h 1.57561 v 5.65908 h -1.57561 z m 5.75365,0 h 3.99459 v 5.65908 h -3.99459 z m 1.30793,1.49086 v 2.67684 h 1.37925 v -2.67684 z m -4.09329,2.27067 h 1.75959 v 1.89755 h -1.75959 z" />
      <path
         id="rect11"
         style="fill:#9964e7;fill-opacity:1;stroke-width:0.264999"
         d="m 51.850283,38.082798 -3.189121,3.189567 h 7.016691 v 7.016691 h -7.016691 v -7.016691 l -3.189567,3.189567 v 7.016691 H 58.86742 V 38.082798 Z"
         inkscape:export-filename="../kegaw/assets/dark_banner.svg"
         inkscape:export-xdpi="96"
         inkscape:export-ydpi="96" />
      <path
         id="path16"
         style="fill:#e7a764;fill-opacity:1;stroke-width:0.264999"
         d="m 58.86742,51.479068 v 13.395379 h 7.017136 l 3.189121,-3.189121 h -7.017136 v -7.017137 h 7.017136 v 7.017137 l 3.189121,-3.189567 v -7.016691 z" />
    </g>
  </g>
</svg>
