<?xml version="1.0" encoding="UTF-8" standalone="no"?>
<!-- Created with Inkscape (http://www.inkscape.org/) -->

<svg
   width="40.955639mm"
   height="55.028683mm"
   viewBox="0 0 40.955639 55.028683"
   version="1.1"
   id="svg1"
   inkscape:version="1.4.3 (0d15f75042, 2025-12-25)"
   sodipodi:docname="proto.svg"
   inkscape:export-filename="../kegaw/repo/banner.png"
   inkscape:export-xdpi="96"
   inkscape:export-ydpi="96"
   xmlns:inkscape="http://www.inkscape.org/namespaces/inkscape"
   xmlns:sodipodi="http://sodipodi.sourceforge.net/DTD/sodipodi-0.dtd"
   xmlns="http://www.w3.org/2000/svg"
   xmlns:svg="http://www.w3.org/2000/svg">
  <sodipodi:namedview
     id="namedview1"
     pagecolor="#ffffff"
     bordercolor="#000000"
     borderopacity="0.25"
     inkscape:showpageshadow="2"
     inkscape:pageopacity="0.0"
     inkscape:pagecheckerboard="0"
     inkscape:deskcolor="#d1d1d1"
     inkscape:document-units="mm"
     inkscape:zoom="0.73323641"
     inkscape:cx="420.05552"
     inkscape:cy="204.57249"
     inkscape:window-width="1280"
     inkscape:window-height="654"
     inkscape:window-x="0"
     inkscape:window-y="0"
     inkscape:window-maximized="1"
     inkscape:current-layer="layer1">
    <inkscape:page
       x="0"
       y="0"
       width="40.955639"
       height="55.028683"
       id="page2"
       margin="0"
       bleed="0" />
  </sodipodi:namedview>
  <defs
     id="defs1">
    <rect
       x="185.47906"
       y="476.6539"
       width="173.88663"
       height="83.192818"
       id="rect2" />
    <rect
       x="185.47906"
       y="476.6539"
       width="173.88663"
       height="83.192818"
       id="rect3" />
  </defs>
  <g
     inkscape:label="Camada 1"
     inkscape:groupmode="layer"
     id="layer1"
     transform="translate(63.508268,-213.35948)">
    <g
       id="g17"
       transform="matrix(1.1590702,0,0,1.1590702,-17.679519,-5.8065422)">
      <path
         id="rect12"
         style="fill:#f2f2f2;stroke-width:0.22863"
         d="m -30.253199,127.35902 -9.286036,9.28603 v 38.19054 h 35.3349085 v -47.47657 z"
         inkscape:export-filename="../kegaw/repo/keg_file.svg"
         inkscape:export-xdpi="96"
         inkscape:export-ydpi="96" />
      <text
         xml:space="preserve"
         transform="matrix(2.0270728,0,0,2.0270728,-296.64257,-932.95016)"
         id="text2"
         style="font-family:'Bitstream Vera Sans';-inkscape-font-specification:'Bitstream Vera Sans';writing-mode:lr-tb;direction:ltr;white-space:pre;shape-inside:url(#rect2);display:inline;fill:#302a28;fill-opacity:1;stroke:none;stroke-width:1.00157"><tspan
           x="185.47852"
           y="487.27148"
           id="tspan3"><tspan
             style="font-family:'URW Gothic';-inkscape-font-specification:'URW Gothic'"
             id="tspan2">kegaw</tspan></tspan></text>
      <text
         xml:space="preserve"
         transform="matrix(0.98528628,0,0,0.98528628,-102.62597,-415.3192)"
         id="text3"
         style="font-family:'Bitstream Vera Sans';-inkscape-font-specification:'Bitstream Vera Sans';writing-mode:lr-tb;direction:ltr;white-space:pre;shape-inside:url(#rect3);display:inline;fill:#302a28;fill-opacity:1;stroke:none;stroke-width:1.00157"><tspan
           x="185.47852"
           y="487.27148"
           id="tspan5"><tspan
             style="font-family:'URW Gothic';-inkscape-font-specification:'URW Gothic'"
             id="tspan4">lang</tspan></tspan></text>
      <path
         id="rect9"
         style="fill:#302a28;fill-opacity:1;stroke-width:0.231996"
         d="m 145.79986,56.991198 v 9.38754 h 12.73049 v -9.38754 z m 1.63763,1.86449 h 1.57561 v 5.65908 h -1.57561 z m 5.75365,0 h 3.99459 v 5.65908 h -3.99459 z m 1.30793,1.49086 v 2.67684 h 1.37925 v -2.67684 z m -4.09329,2.27067 h 1.75959 v 1.89755 h -1.75959 z" />
      <path
         id="rect11"
         style="fill:#302a28;fill-opacity:1;stroke-width:0.264999"
         d="m 51.850168,38.082987 -6.378422,6.378939 v 7.016622 H 58.867311 V 38.082987 Z" />
      <rect
         style="fill:#302a28;fill-opacity:1;stroke-width:0.138809"
         id="rect13"
         width="7.0167527"
         height="7.0167527"
         x="48.660973"
         y="41.272587" />
      <rect
         style="fill:#9964e7;fill-opacity:1;stroke-width:0.138809"
         id="rect14"
         width="7.0167527"
         height="7.0167527"
         x="48.660973"
         y="41.272587" />
      <path
         id="path16"
         style="fill:#302a28;fill-opacity:1;stroke-width:0.264999"
         d="m 65.884454,64.874558 6.378422,-6.37894 v -7.01662 H 58.867311 v 13.39556 z" />
      <rect
         style="fill:#e7a764;fill-opacity:1;stroke-width:0.138809"
         id="rect15"
         width="7.0167527"
         height="7.0167527"
         x="62.056713"
         y="54.668392" />
      <path
         id="path1"
         style="fill:#302a28;fill-opacity:1;stroke-width:0.23016"
         d="m -28.138286,136.69236 -5.539859,5.54031 v 6.09415 h 11.634466 v -11.63446 z" />
      <rect
         style="fill:#302a28;fill-opacity:1;stroke-width:0.12056"
         id="rect6"
         width="6.0942688"
         height="6.0942688"
         x="-30.908203"
         y="139.46263" />
      <rect
         style="fill:#9964e7;fill-opacity:1;stroke-width:0.12056"
         id="rect7"
         width="6.0942688"
         height="6.0942688"
         x="-30.908203"
         y="139.46263" />
      <path
         id="path7"
         style="fill:#302a28;fill-opacity:1;stroke-width:0.23016"
         d="m -15.949071,159.96167 5.539858,-5.54031 v -6.09416 h -11.634466 v 11.63446 z" />
      <rect
         style="fill:#e7a764;fill-opacity:1;stroke-width:0.12056"
         id="rect10"
         width="6.0942688"
         height="6.0942688"
         x="-19.273584"
         y="151.09731" />
      <path
         style="font-family:'URW Gothic';-inkscape-font-specification:'URW Gothic';white-space:pre;fill:#302a28;stroke-width:1.00157"
         d="m 186.69052,487.27148 h 0.888 v -1.512 h -0.888 z m 2.868,0 h 0.888 v -1.356 l 1.032,-1.272 2.184,2.628 h 1.104 l -2.724,-3.264 2.556,-3.3 h -1.092 l -3.06,3.984 v -6.288 h -0.888 z m 12.27601,-2.988 c 0,-0.9 -0.12,-1.452 -0.444,-2.028 -0.588,-1.056 -1.728,-1.704 -2.988,-1.704 -1.908,0 -3.396,1.5 -3.396,3.408 0,1.944 1.524,3.468 3.468,3.468 1.428,0 2.712,-0.924 3.192,-2.316 h -0.924 c -0.372,0.9 -1.296,1.5 -2.292,1.5 -1.356,0 -2.484,-1.032 -2.556,-2.328 z m -5.916,-0.804 c 0.24,-1.26 1.236,-2.112 2.484,-2.112 1.272,0 2.232,0.792 2.544,2.112 z m 13.71598,-2.772 h -0.888 v 1.164 c -0.66,-0.912 -1.464,-1.32 -2.58,-1.32 -1.92,0 -3.348,1.488 -3.348,3.468 0,1.92 1.488,3.408 3.42,3.408 1.188,0 1.992,-0.48 2.508,-1.488 v 0.444 c 0,0.648 -0.072,1.056 -0.264,1.464 -0.348,0.756 -1.128,1.188 -2.148,1.188 -0.732,0 -1.296,-0.216 -1.764,-0.66 -0.228,-0.204 -0.372,-0.408 -0.648,-0.9 h -0.864 c 0.48,1.536 1.644,2.376 3.3,2.376 1.14,0 2.1,-0.432 2.664,-1.176 0.444,-0.6 0.612,-1.296 0.612,-2.58 z m -3.408,0.66 c 1.416,0 2.52,1.116 2.52,2.544 0,1.536 -1.08,2.7 -2.508,2.7 -1.44,0 -2.52,-1.14 -2.52,-2.664 0,-1.5 1.056,-2.58 2.508,-2.58 z"
         id="text17"
         transform="matrix(0.57982748,0,0,0.57982748,-136.94375,-113.38807)"
         aria-label=".keg" />
      <path
         id="path18"
         style="fill:#f2f2f2;stroke-width:0.22863"
         d="m -30.253199,189.08779 -9.286036,9.28603 v 38.19054 h 35.3349085 v -47.47657 z"
         inkscape:export-filename="../kegaw/repo/keg_file.svg"
         inkscape:export-xdpi="96"
         inkscape:export-ydpi="96" />
      <path
         id="path19"
         style="fill:#302a28;fill-opacity:1;stroke-width:0.23016"
         d="m -28.138116,198.42118 -2.770028,2.77002 h 6.09424 v 6.09469 h -6.09424 v -6.09469 l -2.770028,2.77003 v 6.09424 h 11.634295 v -11.63429 z" />
      <path
         id="path20"
         style="fill:#302a28;fill-opacity:1;stroke-width:0.23016"
         d="m -22.043877,210.05592 v 11.63429 l 6.094686,4.5e-4 2.770028,-2.77047 h -6.09424 v -6.09424 h 6.09424 v 6.09424 l 2.770028,-2.77003 v -6.09424 z" />
      <path
         style="font-family:'URW Gothic';-inkscape-font-specification:'URW Gothic';white-space:pre;fill:#302a28;stroke-width:1.00157"
         d="m 186.69052,487.27148 h 0.888 v -1.512 h -0.888 z m 2.868,0 h 0.888 v -1.356 l 1.032,-1.272 2.184,2.628 h 1.104 l -2.724,-3.264 2.556,-3.3 h -1.092 l -3.06,3.984 v -6.288 h -0.888 z m 12.38401,-6.564 h -0.888 v 1.164 c -0.66,-0.912 -1.452,-1.32 -2.592,-1.32 -1.968,0 -3.456,1.488 -3.456,3.456 0,1.968 1.5,3.42 3.528,3.42 1.116,0 1.812,-0.36 2.52,-1.308 v 1.152 h 0.888 z m -3.456,0.66 c 1.452,0 2.568,1.128 2.568,2.592 0,1.5 -1.104,2.652 -2.52,2.652 -1.488,0 -2.628,-1.164 -2.628,-2.664 0,-1.428 1.152,-2.58 2.58,-2.58 z m 4.968,5.904 h 0.888 v -1.356 l 1.032,-1.272 2.184,2.628 h 1.104 l -2.724,-3.264 2.556,-3.3 h -1.092 l -3.06,3.984 v -6.288 h -0.888 z m 8.89201,-6.72 c -1.956,0 -3.444,1.476 -3.444,3.396 0,2.028 1.476,3.48 3.516,3.48 1.92,0 3.336,-1.452 3.336,-3.42 0,-2.004 -1.428,-3.456 -3.408,-3.456 z m 0,0.816 c 1.452,0 2.508,1.116 2.508,2.652 0,1.512 -1.032,2.592 -2.46,2.592 -1.512,0 -2.592,-1.092 -2.592,-2.64 0,-1.488 1.092,-2.604 2.544,-2.604 z"
         id="text22"
         transform="matrix(0.60998041,0,0,0.60998041,-144.78966,-66.188989)"
         aria-label=".kako" />
    </g>
  </g>
</svg>
